<?xml version="1.0" encoding="UTF-8"?>
<svg version="1.1" xmlns="http://www.w3.org/2000/svg" width="900" height="900">
<path d="M0 0 C0.94544678 0.04338501 1.89089355 0.08677002 2.86499023 0.13146973 C5.54573885 0.2575881 8.22602196 0.39064332 10.90625 0.52734375 C11.70345459 0.56595016 12.50065918 0.60455658 13.32202148 0.64433289 C17.14466677 0.84996545 20.75893653 1.279972 24.5 2.0625 C26.63464958 2.23820401 28.77186449 2.38408276 30.91015625 2.5078125 C38.30538978 3.00320544 45.60088237 3.89941021 52.9375 4.9375 C54.21737793 5.11676025 55.49725586 5.29602051 56.81591797 5.48071289 C64.08592974 6.51868996 71.27448544 7.66843348 78.453125 9.21875 C83.04375155 10.20419799 87.66576141 11.01429469 92.28564453 11.84936523 C109.99431312 15.0593776 126.96397399 19.06721372 144.1484375 24.4140625 C148.18419744 25.66798584 152.23264381 26.83401532 156.3125 27.9375 C184.88406488 36.04193427 213.4165107 47.18552112 239.87109375 60.71875 C242.25136163 61.93540996 244.6519662 63.0950437 247.0625 64.25 C251.96141723 66.83306545 251.96141723 66.83306545 253.5 69.0625 C253.79055939 71.85056905 253.89597402 74.41441045 253.86749268 77.20294189 C253.87076152 78.0427396 253.87403036 78.8825373 253.87739825 79.74778342 C253.88470391 82.57324811 253.87049697 85.39819947 253.85644531 88.22363281 C253.85723595 90.24584542 253.85933249 92.26805788 253.86264038 94.29026794 C253.86778883 99.79772927 253.85420195 105.30500469 253.83711338 110.8124361 C253.82207499 116.58993894 253.82325101 122.36743936 253.82244873 128.1449585 C253.8187504 137.86994591 253.80376897 147.59486301 253.78125 157.31982422 C253.75254721 169.73931405 253.7420414 182.15874674 253.7375679 194.57826614 C253.73355785 205.30563763 253.7210483 216.03299707 253.70722103 226.76035976 C253.70315363 230.17905843 253.7002117 233.59775668 253.69742584 237.0164566 C253.69245985 242.4369881 253.6821382 247.85748675 253.66798782 253.27800179 C253.66353771 255.24856073 253.66064394 257.21912404 253.65958023 259.18968773 C253.65274686 269.54683975 253.49650407 279.88498042 253.0758667 290.23431396 C253.0403927 291.15528122 253.00491869 292.07624848 252.96836972 293.02512383 C252.55662014 302.20054135 251.26440834 311.21192549 249.8984375 320.28564453 C249.49431818 323.10209866 249.1448866 325.92032456 248.8125 328.74609375 C247.30989199 341.44162022 245.04328674 353.78488297 242.1484375 366.23486328 C241.51090609 369.01494188 240.90677275 371.8002284 240.3125 374.58984375 C229.34431151 425.5762384 208.53023817 477.51714274 179.5 521.0625 C178.57801547 522.60099225 177.66196312 524.14304633 176.75 525.6875 C172.10945774 533.47277522 167.16837349 540.9897539 161.5 548.0625 C159.86289955 550.26498247 158.24573748 552.48144307 156.62841797 554.69848633 C150.80071882 562.68630466 144.90352127 570.52502184 138.5 578.0625 C137.60402424 579.13269327 136.70819976 580.20301321 135.8125 581.2734375 C126.52343733 592.3042974 116.73136284 602.89911963 106.5 613.0625 C105.31857422 614.27873047 105.31857422 614.27873047 104.11328125 615.51953125 C103.35402344 616.29683594 102.59476563 617.07414063 101.8125 617.875 C101.04550781 618.66519531 100.27851562 619.45539062 99.48828125 620.26953125 C97.5 622.0625 97.5 622.0625 95.5 622.0625 C95.5 622.7225 95.5 623.3825 95.5 624.0625 C94.84 624.0625 94.18 624.0625 93.5 624.0625 C93.5 624.7225 93.5 625.3825 93.5 626.0625 C92.03125 627.5078125 92.03125 627.5078125 90 629.1875 C87.03784388 631.69674297 84.26082415 634.27187905 81.5625 637.0625 C76.8584644 641.83097445 71.62502408 645.74323125 66.2578125 649.7265625 C65.55398438 650.24992188 64.85015625 650.77328125 64.125 651.3125 C63.49851562 651.77140625 62.87203125 652.2303125 62.2265625 652.703125 C60.43914174 654.01847009 60.43914174 654.01847009 59.0234375 655.796875 C57.5 657.0625 57.5 657.0625 55.5625 656.9609375 C53.08469293 655.88158973 51.48189944 654.52230534 49.5 652.6875 C47.46342778 650.81799035 45.50413264 649.06544163 43.25 647.4609375 C42.6725 646.99945312 42.095 646.53796875 41.5 646.0625 C41.5 645.4025 41.5 644.7425 41.5 644.0625 C40.9225 643.80339844 40.345 643.54429687 39.75 643.27734375 C37.32706189 641.96912543 35.53571496 640.47384269 33.5 638.625 C31.46364376 636.78352941 29.49019996 635.05554129 27.25 633.46484375 C26.38375 632.77068359 26.38375 632.77068359 25.5 632.0625 C25.5 631.4025 25.5 630.7425 25.5 630.0625 C24.96117187 629.84207031 24.42234375 629.62164063 23.8671875 629.39453125 C20.70821657 627.6169585 18.23750223 625.22759972 15.625 622.75 C14.60806948 621.79418934 13.58984174 620.83975695 12.5703125 619.88671875 C12.07047852 619.4179834 11.57064453 618.94924805 11.05566406 618.46630859 C9.45585462 617.02266385 7.79954889 615.67801915 6.1171875 614.33203125 C5.25351562 613.58308594 4.38984375 612.83414063 3.5 612.0625 C3.5 611.4025 3.5 610.7425 3.5 610.0625 C2.860625 609.794375 2.22125 609.52625 1.5625 609.25 C-0.5 608.0625 -0.5 608.0625 -1.5 605.0625 C2.42831431 600.88866605 6.66479983 597.16855574 11.5 594.0625 C12.16 594.0625 12.82 594.0625 13.5 594.0625 C13.5 593.4025 13.5 592.7425 13.5 592.0625 C15.59062524 590.30022945 17.6921423 588.64106324 19.875 587 C25.38576383 582.78419556 30.56452231 578.41375457 35.609375 573.64453125 C37.5 572.0625 37.5 572.0625 39.5 572.0625 C39.5 571.4025 39.5 570.7425 39.5 570.0625 C40.84790039 568.73144531 40.84790039 568.73144531 42.78515625 567.140625 C47.91323775 562.77639634 52.6777961 558.07078294 57.43579102 553.31201172 C58.92641615 551.82356763 60.42487017 550.34332723 61.92382812 548.86328125 C69.06574108 541.76273271 75.5520728 534.29256312 81.62670898 526.24511719 C82.24489502 525.52485352 82.86308105 524.80458984 83.5 524.0625 C84.16 524.0625 84.82 524.0625 85.5 524.0625 C85.7475 523.340625 85.995 522.61875 86.25 521.875 C87.62269592 518.78643418 89.22353296 516.55238582 91.5 514.0625 C92.16 514.0625 92.82 514.0625 93.5 514.0625 C93.58507812 513.50433594 93.67015625 512.94617188 93.7578125 512.37109375 C94.72550276 509.36106774 96.34382585 507.53934436 98.375 505.125 C101.08433702 501.89079142 103.37688568 498.70638441 105.5 495.0625 C106.2775137 493.9689646 107.06820623 492.88461521 107.875 491.8125 C110.26463302 488.51253059 112.1964749 485.07020228 114.12890625 481.48828125 C115.58521403 478.91173671 117.18034874 476.46858252 118.8125 474 C123.31498697 466.98427138 126.88589284 459.55708332 130.5 452.0625 C130.90686035 451.22799316 131.3137207 450.39348633 131.73291016 449.53369141 C137.09699418 438.53070311 142.21474558 427.53617692 146.5 416.0625 C146.82774414 415.19383301 147.15548828 414.32516602 147.49316406 413.43017578 C148.58802799 410.51930683 149.67112863 407.60433178 150.75 404.6875 C151.0917627 403.77170166 151.43352539 402.85590332 151.78564453 401.91235352 C153.56962797 397.02306557 155.0029294 392.23387762 156.04785156 387.13623047 C156.73979536 383.96270424 157.76296585 380.90520702 158.75 377.8125 C165.13912597 356.7817276 168.47722059 334.79017652 171.5 313.0625 C171.60795898 312.32306152 171.71591797 311.58362305 171.82714844 310.82177734 C175.64866905 284.50218 175.80888203 257.59051046 175.90471697 231.04256892 C175.92077246 227.15094331 175.94741704 223.2593874 175.9727478 219.36781311 C176.01880933 212.05908358 176.0558948 204.75033979 176.08942068 197.44154316 C176.12816868 189.09506433 176.17743294 180.74865672 176.22740483 172.40223873 C176.3296389 155.28904463 176.41923769 138.17580867 176.5 121.0625 C175.06558962 120.42201724 173.63086099 119.78224719 172.19599915 119.14277649 C171.39706899 118.78642781 170.59813883 118.43007914 169.77499866 118.06293201 C160.07944922 113.79930838 150.00986561 110.44149179 139.96948242 107.09545898 C137.80227603 106.37158507 135.63846754 105.63811006 133.47460938 104.90429688 C126.93937403 102.70888595 120.50787642 100.69811734 113.70117188 99.50878906 C111.43368351 99.04905429 109.34939432 98.3884146 107.16796875 97.62109375 C101.4939306 95.64108438 95.6781578 94.40156428 89.8125 93.125 C88.61915039 92.86412598 87.42580078 92.60325195 86.19628906 92.33447266 C60.5280028 86.78522058 34.32736759 82.14415144 8.03125 81.23828125 C4.5 81.0625 4.5 81.0625 1.23446655 80.56059265 C-2.48641083 80.06431249 -6.03067126 79.92875706 -9.78271484 79.91723633 C-10.4750975 79.91387772 -11.16748016 79.9105191 -11.88084412 79.90705872 C-14.15756057 79.8976096 -16.43420267 79.89560704 -18.7109375 79.89453125 C-20.32256091 79.89130884 -21.93418405 79.88794407 -23.54580688 79.88444519 C-26.92995884 79.87846483 -30.31408533 79.8766036 -33.69824219 79.87719727 C-37.11724221 79.87727776 -40.53610609 79.87045934 -43.95507812 79.85668945 C-63.56184407 79.77895577 -82.98168185 79.9331219 -102.5 82.0625 C-103.27788879 82.14527191 -104.05577759 82.22804382 -104.85723877 82.31332397 C-109.45575521 82.81088641 -114.04017547 83.38754222 -118.625 84 C-119.86507812 84.15662109 -121.10515625 84.31324219 -122.3828125 84.47460938 C-130.06747544 85.47921896 -137.61605668 86.81851454 -145.20019531 88.38647461 C-148.89502978 89.14342908 -152.58995094 89.77167617 -156.3125 90.375 C-163.81068043 91.65096216 -171.21438529 93.29239916 -178.625 95 C-180.19664917 95.36121948 -180.19664917 95.36121948 -181.80004883 95.72973633 C-196.12350548 99.07739821 -210.13820549 103.08889359 -224.1171875 107.64379883 C-226.75801081 108.50260515 -229.40227168 109.35018139 -232.046875 110.19726562 C-240.08308856 112.79470685 -247.92343101 115.4053142 -255.49511719 119.19946289 C-257.5 120.0625 -257.5 120.0625 -260.5 120.0625 C-260.17 120.7225 -259.84 121.3825 -259.5 122.0625 C-259.296875 124.12109375 -259.296875 124.12109375 -259.25 126.5 C-259.22421875 127.28246094 -259.1984375 128.06492188 -259.171875 128.87109375 C-259.57176911 131.54181509 -260.44699122 132.38227439 -262.5 134.0625 C-264.17243402 132.77830959 -265.83781447 131.48492815 -267.5 130.1875 C-268.428125 129.46820313 -269.35625 128.74890625 -270.3125 128.0078125 C-271.034375 127.36585938 -271.75625 126.72390625 -272.5 126.0625 C-272.5 125.4025 -272.5 124.7425 -272.5 124.0625 C-273.0775 123.80339844 -273.655 123.54429687 -274.25 123.27734375 C-276.67293811 121.96912543 -278.46428504 120.47384269 -280.5 118.625 C-282.53635624 116.78352941 -284.50980004 115.05554129 -286.75 113.46484375 C-287.3275 113.00207031 -287.905 112.53929687 -288.5 112.0625 C-288.5 111.4025 -288.5 110.7425 -288.5 110.0625 C-289.3353125 109.70478516 -289.3353125 109.70478516 -290.1875 109.33984375 C-293.02296753 107.77363111 -295.12722978 105.82776991 -297.5 103.625 C-301.02881363 100.35816918 -301.02881363 100.35816918 -304.8125 97.40234375 C-305.369375 96.96019531 -305.92625 96.51804687 -306.5 96.0625 C-306.5 95.4025 -306.5 94.7425 -306.5 94.0625 C-307.06460938 93.81628906 -307.62921875 93.57007813 -308.2109375 93.31640625 C-310.89895928 91.84395746 -312.87317156 90.07945721 -315.125 88 C-316.43210937 86.80310547 -316.43210937 86.80310547 -317.765625 85.58203125 C-318.66796875 84.75058594 -319.5703125 83.91914063 -320.5 83.0625 C-322.28897279 81.43453476 -324.08054046 79.80941535 -325.875 78.1875 C-326.66648437 77.46820313 -327.45796875 76.74890625 -328.2734375 76.0078125 C-330.42310893 74.02872552 -330.42310893 74.02872552 -332.7890625 72.6171875 C-334.5 71.0625 -334.5 71.0625 -334.75 68.375 C-334.62625 67.2303125 -334.62625 67.2303125 -334.5 66.0625 C-308.23208078 53.4524535 -281.63606749 42.34348664 -254.06347656 32.94091797 C-251.91016595 32.2030502 -249.76253171 31.45200735 -247.6171875 30.69140625 C-236.45123011 26.81257139 -225.02622058 23.88669026 -213.60009766 20.88378906 C-210.88864424 20.16546103 -208.18349316 19.42896432 -205.48046875 18.6796875 C-193.5102018 15.38761027 -181.41868144 12.94000463 -169.23046875 10.59716797 C-165.89351389 9.94374065 -162.5735183 9.21828374 -159.25 8.5 C-151.85666521 7.02133304 -144.40270516 5.98426591 -136.9375 4.9375 C-135.7299707 4.76661865 -134.52244141 4.5957373 -133.27832031 4.41967773 C-126.03893809 3.43289153 -118.83784318 2.73508349 -111.54321289 2.31298828 C-108.59704664 2.13368262 -108.59704664 2.13368262 -106.13647461 1.56811523 C-102.415158 0.85445224 -98.68277804 0.71023056 -94.90625 0.52734375 C-94.06006104 0.48418533 -93.21387207 0.44102692 -92.34204102 0.39656067 C-89.56162181 0.25807955 -86.7809386 0.12761273 -84 0 C-82.55959351 -0.06628601 -82.55959351 -0.06628601 -81.09008789 -0.13391113 C-53.99524737 -1.35366147 -27.09216802 -1.24675343 0 0 Z " fill="#0A2F51" transform="translate(491.5,98.9375)"/>
<path d="M0 0 C2.28490742 1.01601614 3.11984141 1.94608246 4.6015625 3.94140625 C7.78322197 7.87027363 11.4536292 10.79021274 15.4296875 13.88671875 C17.86728836 15.79343108 20.24902746 17.74340645 22.6015625 19.75390625 C23.57996094 20.58535156 23.57996094 20.58535156 24.578125 21.43359375 C25.9765625 22.87890625 25.9765625 22.87890625 25.9765625 24.87890625 C26.52441406 25.10707031 27.07226562 25.33523438 27.63671875 25.5703125 C30.66947992 27.26643101 32.88915262 29.42853354 35.4140625 31.81640625 C39.76574581 35.89216884 44.20776441 39.81326251 48.7890625 43.62890625 C52.77662286 46.9570011 56.55771997 50.36716179 60.1484375 54.12109375 C63.44959318 57.2952819 67.10931899 60.05048215 70.71875 62.86328125 C72.9765625 64.87890625 72.9765625 64.87890625 73.9765625 67.87890625 C74.08947828 70.04656387 74.1431324 72.2174635 74.16601562 74.38793945 C74.17845558 75.37434418 74.17845558 75.37434418 74.19114685 76.38067627 C74.20854673 77.81128347 74.22371373 79.24191916 74.23692322 80.67257118 C74.25809175 82.9598604 74.28512153 85.24701629 74.31359863 87.53422546 C74.37328656 92.41989854 74.42513465 97.3056404 74.4765625 102.19140625 C74.5286196 137.85494427 74.5286196 137.85494427 77.2265625 173.37890625 C77.35442139 174.44238281 77.48228027 175.50585938 77.61401367 176.6015625 C81.31286017 206.20948854 86.08613195 236.94258441 96.9765625 264.87890625 C97.4441459 266.25774689 97.90328175 267.63947122 98.35546875 269.0234375 C99.93717472 273.79872022 101.62126597 278.53066438 103.3515625 283.25390625 C103.63 284.02734375 103.9084375 284.80078125 104.1953125 285.59765625 C106.48248109 291.84100835 109.16614485 297.85538737 111.9765625 303.87890625 C112.40050293 304.79784668 112.82444336 305.71678711 113.26123047 306.66357422 C118.36503975 317.68618385 123.59926349 328.46791755 130.04296875 338.7734375 C131.71495585 341.45875011 133.27841728 344.16347203 134.7890625 346.94140625 C136.67410099 350.38870267 138.74586704 353.64079993 140.9765625 356.87890625 C144.9765625 362.87890625 144.9765625 362.87890625 146.73046875 365.56640625 C149.31618787 369.44319012 152.11208941 373.15693451 154.9140625 376.87890625 C155.42646484 377.5646875 155.93886719 378.25046875 156.46679688 378.95703125 C158.85172941 382.13290075 161.26307477 385.24420898 163.85546875 388.25390625 C165.9765625 390.87890625 165.9765625 390.87890625 165.9765625 392.87890625 C166.6365625 392.87890625 167.2965625 392.87890625 167.9765625 392.87890625 C169.52734375 394.41796875 169.52734375 394.41796875 171.2890625 396.50390625 C171.90523437 397.2309375 172.52140625 397.95796875 173.15625 398.70703125 C173.75695312 399.42375 174.35765625 400.14046875 174.9765625 400.87890625 C175.49476563 401.471875 176.01296875 402.06484375 176.546875 402.67578125 C179.9765625 406.63462054 179.9765625 406.63462054 179.9765625 408.87890625 C180.6365625 408.87890625 181.2965625 408.87890625 181.9765625 408.87890625 C183.24609375 410.171875 183.24609375 410.171875 184.7890625 412.06640625 C188.27633539 416.1742955 191.98299268 420.00719135 195.7890625 423.81640625 C196.36438721 424.39608154 196.93971191 424.97575684 197.5324707 425.57299805 C200.47382308 428.59541178 200.47382308 428.59541178 203.9765625 430.87890625 C203.9765625 431.53890625 203.9765625 432.19890625 203.9765625 432.87890625 C204.51023437 433.09417969 205.04390625 433.30945313 205.59375 433.53125 C208.85313858 435.37467469 211.4046802 437.87903998 214.1015625 440.44140625 C217.74059657 444.06524532 217.74059657 444.06524532 221.9765625 446.87890625 C221.9765625 447.53890625 221.9765625 448.19890625 221.9765625 448.87890625 C222.71003906 449.12898438 223.44351563 449.3790625 224.19921875 449.63671875 C227.20218074 450.97981567 229.03137183 452.50287942 231.4140625 454.75390625 C234.02310175 457.16225017 236.52746796 459.36987554 239.5390625 461.25390625 C240.3434375 461.79015625 241.1478125 462.32640625 241.9765625 462.87890625 C241.9765625 463.53890625 241.9765625 464.19890625 241.9765625 464.87890625 C242.6984375 465.12640625 243.4203125 465.37390625 244.1640625 465.62890625 C247.260946 467.00529892 249.35250594 468.73964606 251.9765625 470.87890625 C257.54325095 475.02758818 263.158378 479.09032099 268.9765625 482.87890625 C273.79930326 486.02417197 278.40362725 489.38582224 282.9765625 492.87890625 C283.9665625 493.62140625 284.9565625 494.36390625 285.9765625 495.12890625 C286.6365625 495.70640625 287.2965625 496.28390625 287.9765625 496.87890625 C287.9765625 497.53890625 287.9765625 498.19890625 287.9765625 498.87890625 C288.5128125 499.09675781 289.0490625 499.31460937 289.6015625 499.5390625 C292.81074929 501.34950834 295.32189183 503.7964404 297.9765625 506.31640625 C302.00941114 510.14015089 302.00941114 510.14015089 306.3515625 513.6015625 C307.1559375 514.23384766 307.1559375 514.23384766 307.9765625 514.87890625 C307.9765625 515.53890625 307.9765625 516.19890625 307.9765625 516.87890625 C308.56566406 517.14960937 309.15476562 517.4203125 309.76171875 517.69921875 C311.96130378 518.87077903 313.56194613 520.09566398 315.4140625 521.75390625 C316.10371094 522.37007812 316.79335938 522.98625 317.50390625 523.62109375 C321.07818351 526.8848098 324.63349372 530.16884243 328.18164062 533.4609375 C331.21873069 536.27476424 334.28032677 539.04722471 337.4140625 541.75390625 C338.60191412 542.79517193 339.78943632 543.83681358 340.9765625 544.87890625 C341.89308594 545.66007813 341.89308594 545.66007813 342.828125 546.45703125 C344.5390625 548.00390625 344.5390625 548.00390625 346.9765625 550.87890625 C346.94140625 553.34375 346.94140625 553.34375 345.9765625 555.87890625 C343.7890625 557.6875 343.7890625 557.6875 340.9765625 559.31640625 C339.98785156 559.90421875 338.99914062 560.49203125 337.98046875 561.09765625 C336.98917969 561.68546875 335.99789063 562.27328125 334.9765625 562.87890625 C332.55310894 564.50165929 330.15152316 566.15194435 327.75390625 567.8125 C325.9765625 568.87890625 325.9765625 568.87890625 323.9765625 568.87890625 C323.9765625 569.53890625 323.9765625 570.19890625 323.9765625 570.87890625 C322.95949219 571.42417969 322.95949219 571.42417969 321.921875 571.98046875 C316.18687628 575.07832125 310.57825266 578.29017385 305.0703125 581.77734375 C302.9765625 582.87890625 302.9765625 582.87890625 299.9765625 582.87890625 C299.9765625 583.53890625 299.9765625 584.19890625 299.9765625 584.87890625 C293.65738509 588.96778575 293.65738509 588.96778575 290.61645508 588.57080078 C287.96913008 587.87695827 286.06079954 586.98291639 283.71875 585.5859375 C282.93282471 585.12292236 282.14689941 584.65990723 281.3371582 584.18286133 C280.51691162 583.69068115 279.69666504 583.19850098 278.8515625 582.69140625 C277.15556068 581.69036736 275.45894837 580.69036203 273.76171875 579.69140625 C272.9433252 579.20800781 272.12493164 578.72460938 271.28173828 578.2265625 C266.9059864 575.66840211 262.4500874 573.26143524 257.9765625 570.87890625 C257.9765625 570.21890625 257.9765625 569.55890625 257.9765625 568.87890625 C257.2959375 568.65203125 256.6153125 568.42515625 255.9140625 568.19140625 C252.94382194 566.86427749 250.54782541 565.17695039 247.9453125 563.2421875 C245.09551163 561.26881349 242.06330031 559.68982909 238.9921875 558.08984375 C236.9765625 556.87890625 236.9765625 556.87890625 235.5234375 555.41796875 C233.55049667 553.45499226 231.38315832 552.27275574 228.9765625 550.87890625 C222.80171258 546.88913933 216.72286473 542.75709737 210.7265625 538.50390625 C209.35757813 537.53324219 209.35757813 537.53324219 207.9609375 536.54296875 C207.30609375 535.99382813 206.65125 535.4446875 205.9765625 534.87890625 C205.9765625 534.21890625 205.9765625 533.55890625 205.9765625 532.87890625 C205.15865234 532.76869141 205.15865234 532.76869141 204.32421875 532.65625 C201.06595777 531.57739154 199.0203286 529.65761892 196.4140625 527.44140625 C193.64617272 525.10165682 190.9934229 522.89014652 187.9765625 520.87890625 C187.9765625 520.21890625 187.9765625 519.55890625 187.9765625 518.87890625 C187.25082031 518.63527344 186.52507812 518.39164063 185.77734375 518.140625 C182.63216367 516.72375866 180.67451969 515.04774814 178.1640625 512.69140625 C176.86082031 511.48291016 176.86082031 511.48291016 175.53125 510.25 C174.68820312 509.46753906 173.84515625 508.68507813 172.9765625 507.87890625 C171.58561935 506.66494691 170.19021756 505.45606458 168.7890625 504.25390625 C165.50555697 501.40331727 162.43926545 498.39138419 159.421875 495.26171875 C158.00546473 493.7703614 158.00546473 493.7703614 155.9765625 492.87890625 C155.9765625 492.21890625 155.9765625 491.55890625 155.9765625 490.87890625 C155.3165625 490.87890625 154.6565625 490.87890625 153.9765625 490.87890625 C153.9765625 490.21890625 153.9765625 489.55890625 153.9765625 488.87890625 C153.3165625 488.87890625 152.6565625 488.87890625 151.9765625 488.87890625 C151.9765625 488.21890625 151.9765625 487.55890625 151.9765625 486.87890625 C151.3990625 486.63140625 150.8215625 486.38390625 150.2265625 486.12890625 C147.64716271 484.69590637 145.91534658 483.09465949 143.9765625 480.87890625 C143.9765625 480.21890625 143.9765625 479.55890625 143.9765625 478.87890625 C143.3165625 478.87890625 142.6565625 478.87890625 141.9765625 478.87890625 C141.9765625 478.21890625 141.9765625 477.55890625 141.9765625 476.87890625 C141.3165625 476.87890625 140.6565625 476.87890625 139.9765625 476.87890625 C139.9765625 476.21890625 139.9765625 475.55890625 139.9765625 474.87890625 C139.3165625 474.87890625 138.6565625 474.87890625 137.9765625 474.87890625 C137.9765625 474.21890625 137.9765625 473.55890625 137.9765625 472.87890625 C137.3165625 472.87890625 136.6565625 472.87890625 135.9765625 472.87890625 C135.9765625 472.21890625 135.9765625 471.55890625 135.9765625 470.87890625 C135.3165625 470.87890625 134.6565625 470.87890625 133.9765625 470.87890625 C132.49609375 469.375 132.49609375 469.375 130.7890625 467.31640625 C128.47046224 464.5810328 126.12418898 461.98823652 123.5390625 459.50390625 C119.98622808 456.01479981 116.94978031 452.19889977 113.87890625 448.28515625 C112.28691248 446.27146393 110.6612245 444.31466963 108.9765625 442.37890625 C96.9194387 428.39777333 86.04442038 413.34103939 75.9765625 397.87890625 C74.58125516 395.81605037 73.18541627 393.75355394 71.7890625 391.69140625 C69.11144208 387.67497563 66.64660456 383.63702836 64.37109375 379.3828125 C62.94918664 376.82975239 61.4220243 374.35455911 59.88037109 371.87255859 C55.02921383 364.01585996 51.01501748 355.91964007 47.15234375 347.5390625 C45.54245041 344.05155205 43.83967244 340.63255623 42.06152344 337.22851562 C18.32640374 291.49675906 5.65382868 239.61982994 -1.0234375 188.87890625 C-1.13429687 188.04681641 -1.24515625 187.21472656 -1.359375 186.35742188 C-4.6667198 161.03835661 -5.34348892 135.56615309 -5.32502007 110.06966805 C-5.32392641 107.06367544 -5.32888996 104.05770278 -5.3336255 101.0517146 C-5.34455888 93.97464563 -5.34524283 86.89762987 -5.33911133 79.82055664 C-5.33300159 72.53995113 -5.34559383 65.25953544 -5.3666814 57.97896224 C-5.38426207 51.67516558 -5.3903068 45.37142977 -5.38704365 39.06760949 C-5.38523465 35.32374494 -5.38783434 31.58001794 -5.40175819 27.83617592 C-5.41660389 23.69444721 -5.40739855 19.5531158 -5.39575195 15.41137695 C-5.40339569 14.17889221 -5.41103943 12.94640747 -5.41891479 11.67657471 C-5.41190048 10.55465225 -5.40488617 9.4327298 -5.3976593 8.27680969 C-5.39782704 7.30088017 -5.39799479 6.32495066 -5.39816761 5.31944752 C-5.0234375 2.87890625 -5.0234375 2.87890625 -3.62651348 1.03396893 C-2.0234375 -0.12109375 -2.0234375 -0.12109375 0 0 Z " fill="#0B2E51" transform="translate(159.0234375,232.12109375)"/>
<path d="M0 0 C1.05113277 -0.00384115 2.10226554 -0.00768229 3.18525082 -0.01163983 C4.33883758 -0.01077335 5.49242435 -0.00990687 6.68096828 -0.00901413 C7.90733499 -0.01198525 9.1337017 -0.01495637 10.39723104 -0.01801753 C13.80288943 -0.02519834 17.20849737 -0.02787688 20.6141597 -0.028615 C24.2863068 -0.03046612 27.95844298 -0.03801356 31.63058376 -0.04475021 C39.65921639 -0.05832938 47.68784402 -0.06435706 55.71648622 -0.06876087 C60.72708285 -0.07152291 65.73767756 -0.07576008 70.7482729 -0.08026505 C84.61534568 -0.0924551 98.48241691 -0.10275628 112.34949493 -0.10614014 C113.23688314 -0.1063597 114.12427135 -0.10657927 115.0385501 -0.10680549 C115.92807572 -0.10702377 116.81760134 -0.10724204 117.73408228 -0.10746694 C119.53664434 -0.10791041 121.3392064 -0.10835697 123.14176846 -0.10880661 C124.03590395 -0.10902804 124.93003944 -0.10924947 125.85126995 -0.10947761 C140.35343097 -0.1134293 154.85554185 -0.13089577 169.35768349 -0.15416613 C184.23895992 -0.17785272 199.12021115 -0.19034069 214.00150675 -0.19150805 C222.36012277 -0.19242611 230.7186734 -0.1982116 239.07727146 -0.21632767 C246.19135952 -0.23169207 253.30536197 -0.23687072 260.41946346 -0.22858956 C264.05123033 -0.22467056 267.68282457 -0.22567324 271.31457043 -0.23964691 C275.24577922 -0.25463512 279.17674222 -0.24655682 283.10797024 -0.23606491 C284.84169647 -0.24814952 284.84169647 -0.24814952 286.61044747 -0.26047826 C287.65897249 -0.25388841 288.70749751 -0.24729857 289.78779602 -0.24050903 C291.14982803 -0.24140467 291.14982803 -0.24140467 292.53937584 -0.24231839 C295.30746965 0.20914072 296.19854994 0.87918725 297.83097744 3.13142776 C298.20519924 6.17416763 298.20519924 6.17416763 298.20329189 9.95784378 C298.20694256 10.64757278 298.21059322 11.33730179 298.21435452 12.04793167 C298.22245939 14.32731639 298.20885256 16.60599012 298.19425869 18.88533401 C298.19374013 20.4680926 298.19425767 22.05085183 298.19576931 23.63360977 C298.19567959 26.9499562 298.18525047 30.2660595 298.16715908 33.5823555 C298.14445328 37.83862398 298.14393115 42.09453771 298.15067673 46.35085011 C298.15401369 49.61845441 298.14739212 52.88597745 298.13754749 56.15356636 C298.13369186 57.72329089 298.13254878 59.29302445 298.13413334 60.86275291 C298.13450311 63.05348022 298.12190989 65.24374786 298.10563564 67.43440628 C298.10102825 68.68222382 298.09642086 69.93004135 298.09167385 71.21567154 C297.83097744 74.13142776 297.83097744 74.13142776 295.83097744 76.13142776 C293.8201189 76.37752342 293.8201189 76.37752342 291.30055141 76.3719368 C290.34700268 76.37468613 289.39345394 76.37743546 288.41100979 76.3802681 C287.36156689 76.37307755 286.31212399 76.36588699 285.23087978 76.35847855 C284.12843426 76.3587706 283.02598873 76.35906265 281.89013577 76.35936356 C278.23231647 76.35796598 274.57469882 76.34238457 270.91691494 76.32674026 C268.3862866 76.32301166 265.85565681 76.32016397 263.32502651 76.31816483 C257.33621238 76.31129887 251.34748532 76.29552289 245.35870612 76.27546585 C238.54138737 76.25312846 231.72406519 76.24211887 224.90671897 76.23207498 C210.88143144 76.21115721 196.85620842 76.17596776 182.83097744 76.13142776 C182.83113979 76.69910472 182.83130214 77.26678168 182.83146942 77.85166097 C182.84032713 111.47925121 182.81804351 145.10666522 182.75518715 178.73419715 C182.74767089 182.76976451 182.74041545 186.8053323 182.73332119 190.84090042 C182.73190444 191.64432655 182.73048769 192.44775268 182.729028 193.27552506 C182.70669511 206.29319562 182.70550193 219.31078696 182.71208881 232.32847133 C182.71837568 245.68078962 182.70202011 259.03294094 182.66454136 272.38520885 C182.64212203 280.62774016 182.63747164 288.86989152 182.6553808 297.11243549 C182.66596337 302.76078148 182.65459931 308.40881452 182.62581591 314.05709609 C182.60984879 317.31856399 182.60696048 320.57913265 182.6235857 323.84062004 C182.64007844 327.37385613 182.61999964 330.90502294 182.59046841 334.43812943 C182.60405451 335.47314315 182.61764061 336.50815688 182.63163841 337.57453465 C182.58826079 340.23121493 182.50447712 342.56131721 181.83097744 345.13142776 C178.91143894 347.72065735 178.91143894 347.72065735 175.83097744 349.13142776 C174.81777431 349.75791214 174.81777431 349.75791214 173.78410244 350.39705276 C169.05319966 353.13142776 169.05319966 353.13142776 166.83097744 353.13142776 C166.83097744 353.79142776 166.83097744 354.45142776 166.83097744 355.13142776 C164.99311121 356.80572985 163.1743166 358.31359037 161.20597744 359.81892776 C160.68390713 360.24754105 160.16183681 360.67615433 159.62394619 361.11775589 C156.65209714 363.3961735 155.22113693 364.15788686 151.43253994 363.90095901 C150.57402431 363.6470137 149.71550869 363.39306839 148.83097744 363.13142776 C148.58347744 362.18267776 148.33597744 361.23392776 148.08097744 360.25642776 C146.60457625 356.5654248 146.19621979 356.74910566 142.83097744 355.13142776 C131.43799497 345.84237585 121.34534856 334.74103394 111.00065517 324.31697464 C108.97657697 322.18812825 108.97657697 322.18812825 107.10075283 320.77400589 C103.67870335 316.34725163 104.68897188 308.65663854 104.7039938 303.23076248 C104.70165381 301.92094538 104.70165381 301.92094538 104.69926655 300.58466733 C104.69529099 297.6703865 104.698433 294.75615816 104.70158291 291.84187698 C104.7002272 289.74686528 104.69844632 287.65185382 104.69627285 285.5568428 C104.69171474 279.8700723 104.69348248 274.18331995 104.69665194 268.49654913 C104.69918857 262.52727682 104.69683393 256.55800604 104.69526577 250.58873367 C104.69344591 240.54973956 104.69584352 230.51075279 104.70060635 220.4717598 C104.70602786 208.91189984 104.70430099 197.35205758 104.69877994 185.79219806 C104.69421871 175.83936789 104.69361353 165.886543 104.69621861 155.93371212 C104.69776758 150.0025123 104.69801381 144.07132074 104.69468212 138.14012146 C104.69176025 132.54718845 104.69385707 126.95427783 104.69957638 121.3613472 C104.70088201 119.32543983 104.70054804 117.28953053 104.69831371 115.25362396 C104.68497828 101.84998472 105.07991268 88.51434201 105.83097744 75.13142776 C104.84097744 75.62642776 104.84097744 75.62642776 103.83097744 76.13142776 C102.34042288 76.22779458 100.84563687 76.26209343 99.35197353 76.26514053 C98.40972927 76.26940552 97.46748501 76.2736705 96.49668789 76.27806473 C95.45973782 76.27761154 94.42278774 76.27715836 93.35441494 76.27669144 C91.72019588 76.28172935 91.72019588 76.28172935 90.0529623 76.28686905 C86.43728921 76.29639919 82.82166232 76.29832309 79.20597744 76.29939651 C76.70255927 76.30260728 74.1991413 76.30597121 71.69572353 76.30948257 C66.44327906 76.31547875 61.19084639 76.31736464 55.93839931 76.3167305 C49.86149804 76.31612927 43.78468542 76.32668964 37.70780659 76.34247416 C31.86761136 76.35710511 26.02745137 76.36071916 20.18723965 76.36012077 C17.69923954 76.36130484 15.21123885 76.36575026 12.72325039 76.37345314 C9.25127096 76.383197 5.7795227 76.38039739 2.30753994 76.37434769 C0.75211483 76.38277695 0.75211483 76.38277695 -0.83473301 76.3913765 C-1.77697727 76.38718201 -2.71922153 76.38298752 -3.69001865 76.37866592 C-4.51150394 76.37921069 -5.33298923 76.37975546 -6.17936802 76.38031673 C-8.16902256 76.13142776 -8.16902256 76.13142776 -10.16902256 74.13142776 C-10.41626072 71.20894241 -10.41626072 71.20894241 -10.41194248 67.41853714 C-10.41384083 66.72895416 -10.41573917 66.03937119 -10.41769505 65.32889175 C-10.42140671 63.04420561 -10.41069319 60.75983577 -10.39949131 58.47517776 C-10.39829959 56.89099032 -10.39784633 55.30680216 -10.39810276 53.72261429 C-10.39653721 50.40034444 -10.38824227 47.07818225 -10.37483311 43.75593948 C-10.35784316 39.49186935 -10.35401874 35.22791761 -10.35477829 30.9638176 C-10.35450669 27.69194274 -10.34902706 24.4200939 -10.34177685 21.14822769 C-10.33858889 19.57570976 -10.33662248 18.00318887 -10.33588314 16.43066788 C-10.33372092 14.23516671 -10.32497928 12.03979241 -10.31428623 9.84431839 C-10.31047443 8.59348465 -10.30666264 7.34265091 -10.30273533 6.05391312 C-10.16902256 3.13142776 -10.16902256 3.13142776 -9.16902256 1.13142776 C-6.11843687 0.04972213 -3.21423137 0.00441159 0 0 Z " fill="#07A0E4" transform="translate(306.16902256011963,259.8685722351074)"/>
<path d="M0 0 C0.33 0 0.66 0 1 0 C1.15801851 4.9996853 1.29950069 9.99973241 1.4375 15 C1.47259171 16.23071732 1.47259171 16.23071732 1.50839233 17.48629761 C1.88049533 30.83261112 2.04884614 44.17451716 2.13100243 57.52516556 C2.14846211 60.22646326 2.16859869 62.9277268 2.18977356 65.6289978 C2.19681148 66.52740576 2.20384939 67.42581371 2.21110058 68.35144615 C2.22550047 70.17604356 2.24002787 72.00063998 2.25468159 73.82523537 C2.29706884 79.30800397 2.32147467 84.79051811 2.33411789 90.27343082 C2.34630741 93.76040411 2.37494402 97.24711086 2.40768814 100.73394585 C2.41963203 102.37682986 2.42465344 104.01978059 2.42232895 105.66270638 C2.41998485 107.94112814 2.44219274 110.21811168 2.4699707 112.49633789 C2.47583694 113.78133682 2.48170319 115.06633575 2.48774719 116.39027405 C3.1228081 120.86540002 4.58742162 123.20168674 7 127 C7.72650541 128.67412117 8.45231489 130.34887878 9.140625 132.0390625 C10.58581723 135.33672841 12.31671298 138.49295795 14.01171875 141.66796875 C15 144 15 144 15 148 C15.66 148 16.32 148 17 148 C17.99 152.455 17.99 152.455 19 157 C19.66 157 20.32 157 21 157 C21.83919398 159.26882087 22.67151724 161.53977027 23.5 163.8125 C23.73847656 164.45509766 23.97695313 165.09769531 24.22265625 165.75976562 C25.27068746 168.64933739 26 170.90076061 26 174 C26.66 174 27.32 174 28 174 C28.24234375 174.89460937 28.4846875 175.78921875 28.734375 176.7109375 C30.29317242 182.33459895 31.83795374 187.86770317 34.125 193.25 C35.81922172 197.28039463 36.78874008 201.17337173 37.5078125 205.48046875 C38.13998513 208.71659056 39.09322555 211.82952789 40 215 C45.80744428 237.73621951 49.23943285 261.53650331 50 285 C51.32 285.33 52.64 285.66 54 286 C52.57148056 293.01932397 50.59734459 299.71415878 48.3125 306.5 C47.78184937 308.08059204 47.78184937 308.08059204 47.24047852 309.69311523 C36.5715339 341.04640765 21.36745536 372.44881697 3 400 C2.07801547 401.53849225 1.16196312 403.08054633 0.25 404.625 C-4.39054226 412.41027522 -9.33162651 419.9272539 -15 427 C-16.63710045 429.20248247 -18.25426252 431.41894307 -19.87158203 433.63598633 C-25.69928118 441.62380466 -31.59647873 449.46252184 -38 457 C-38.89597576 458.07019327 -39.79180024 459.14051321 -40.6875 460.2109375 C-49.97656267 471.2417974 -59.76863716 481.83661963 -70 492 C-70.78761719 492.81082031 -71.57523438 493.62164063 -72.38671875 494.45703125 C-73.14597656 495.23433594 -73.90523437 496.01164062 -74.6875 496.8125 C-75.45449219 497.60269531 -76.22148438 498.39289063 -77.01171875 499.20703125 C-79 501 -79 501 -81 501 C-81 501.66 -81 502.32 -81 503 C-81.66 503 -82.32 503 -83 503 C-83 503.66 -83 504.32 -83 505 C-84.46875 506.4453125 -84.46875 506.4453125 -86.5 508.125 C-89.46215612 510.63424297 -92.23917585 513.20937905 -94.9375 516 C-99.6415356 520.76847445 -104.87497592 524.68073125 -110.2421875 528.6640625 C-110.94601562 529.18742188 -111.64984375 529.71078125 -112.375 530.25 C-113.00148438 530.70890625 -113.62796875 531.1678125 -114.2734375 531.640625 C-116.06085826 532.95597009 -116.06085826 532.95597009 -117.4765625 534.734375 C-119 536 -119 536 -120.9375 535.8984375 C-123.41530707 534.81908973 -125.01810056 533.45980534 -127 531.625 C-129.03657222 529.75549035 -130.99586736 528.00294163 -133.25 526.3984375 C-133.8275 525.93695312 -134.405 525.47546875 -135 525 C-135 524.34 -135 523.68 -135 523 C-135.5775 522.74089844 -136.155 522.48179687 -136.75 522.21484375 C-139.17293811 520.90662543 -140.96428504 519.41134269 -143 517.5625 C-145.03635624 515.72102941 -147.00980004 513.99304129 -149.25 512.40234375 C-150.11625 511.70818359 -150.11625 511.70818359 -151 511 C-151 510.34 -151 509.68 -151 509 C-151.53882813 508.77957031 -152.07765625 508.55914063 -152.6328125 508.33203125 C-155.79178343 506.5544585 -158.26249777 504.16509972 -160.875 501.6875 C-161.89193052 500.73168934 -162.91015826 499.77725695 -163.9296875 498.82421875 C-164.42952148 498.3554834 -164.92935547 497.88674805 -165.44433594 497.40380859 C-167.04414538 495.96016385 -168.70045111 494.61551915 -170.3828125 493.26953125 C-171.24648438 492.52058594 -172.11015625 491.77164062 -173 491 C-173 490.34 -173 489.68 -173 489 C-173.639375 488.731875 -174.27875 488.46375 -174.9375 488.1875 C-177 487 -177 487 -178 484 C-174.07168569 479.82616605 -169.83520017 476.10605574 -165 473 C-164.34 473 -163.68 473 -163 473 C-163 472.34 -163 471.68 -163 471 C-160.90937476 469.23772945 -158.8078577 467.57856324 -156.625 465.9375 C-151.11423617 461.72169556 -145.93547769 457.35125457 -140.890625 452.58203125 C-139 451 -139 451 -137 451 C-137 450.34 -137 449.68 -137 449 C-135.65209961 447.66894531 -135.65209961 447.66894531 -133.71484375 446.078125 C-128.58676225 441.71389634 -123.8222039 437.00828294 -119.06420898 432.24951172 C-117.57358385 430.76106763 -116.07512983 429.28082723 -114.57617188 427.80078125 C-107.43425892 420.70023271 -100.9479272 413.23006312 -94.87329102 405.18261719 C-94.25510498 404.46235352 -93.63691895 403.74208984 -93 403 C-92.34 403 -91.68 403 -91 403 C-90.7525 402.278125 -90.505 401.55625 -90.25 400.8125 C-88.87730408 397.72393418 -87.27646704 395.48988582 -85 393 C-84.34 393 -83.68 393 -83 393 C-82.91492188 392.44183594 -82.82984375 391.88367188 -82.7421875 391.30859375 C-81.77449724 388.29856774 -80.15617415 386.47684436 -78.125 384.0625 C-75.41566298 380.82829142 -73.12311432 377.64388441 -71 374 C-70.2224863 372.9064646 -69.43179377 371.82211521 -68.625 370.75 C-66.23536698 367.45003059 -64.3035251 364.00770228 -62.37109375 360.42578125 C-60.91478597 357.84923671 -59.31965126 355.40608252 -57.6875 352.9375 C-53.18501303 345.92177138 -49.61410716 338.49458332 -46 331 C-45.59313965 330.16549316 -45.1862793 329.33098633 -44.76708984 328.47119141 C-39.40300582 317.46820311 -34.28525442 306.47367692 -30 295 C-29.67225586 294.13133301 -29.34451172 293.26266602 -29.00683594 292.36767578 C-27.91197201 289.45680683 -26.82887137 286.54183178 -25.75 283.625 C-25.4082373 282.70920166 -25.06647461 281.79340332 -24.71435547 280.84985352 C-22.93037203 275.96056557 -21.4970706 271.17137762 -20.45214844 266.07373047 C-19.76020464 262.90020424 -18.73703415 259.84270702 -17.75 256.75 C-11.36087403 235.7192276 -8.02277941 213.72767652 -5 192 C-4.89204102 191.26056152 -4.78408203 190.52112305 -4.67285156 189.75927734 C-0.85133095 163.43968 -0.69111797 136.52801046 -0.59528303 109.98006892 C-0.57922754 106.08844331 -0.55258296 102.1968874 -0.5272522 98.30531311 C-0.48119067 90.99658358 -0.4441052 83.68783979 -0.41057932 76.37904316 C-0.37183132 68.03256433 -0.32256706 59.68615672 -0.27259517 51.33973873 C-0.1703611 34.22654463 -0.08076231 17.11330867 0 0 Z " fill="#2C6794" transform="translate(668,220)"/>
<path d="M0 0 C1.21236328 0.01353516 1.21236328 0.01353516 2.44921875 0.02734375 C3.37154297 0.04474609 3.37154297 0.04474609 4.3125 0.0625 C4.3125 1.3825 4.3125 2.7025 4.3125 4.0625 C5.03083008 4.03639648 5.74916016 4.01029297 6.48925781 3.98339844 C14.28820373 3.82485259 21.43877333 4.73482321 29.0625 6.3125 C30.19993652 6.53921387 31.33737305 6.76592773 32.50927734 6.99951172 C39.95040242 8.50634748 47.30449534 10.23043871 54.64453125 12.1640625 C58.61892675 13.1375566 62.59558519 13.86459173 66.625 14.5625 C73.17233262 15.718607 79.17230684 17.52074562 85.3125 20.0625 C87.04080286 20.77293839 88.76995816 21.4813069 90.5 22.1875 C91.23605469 22.49945313 91.97210938 22.81140625 92.73046875 23.1328125 C95.51472222 24.13531224 98.33105305 24.81006271 101.20483398 25.50439453 C104.64183395 26.4145048 107.9338432 27.66364006 111.25 28.9375 C111.95382812 29.20506104 112.65765625 29.47262207 113.3828125 29.74829102 C117.60196888 31.36605673 121.7694782 33.05408478 125.87109375 34.953125 C127.84825218 35.85154579 129.84530141 36.70610722 131.84765625 37.546875 C141.13001326 41.45269795 149.83194497 45.98748356 158.53613281 51.04296875 C160.99679803 52.45524719 163.49677309 53.78994565 166 55.125 C170.11746086 57.36749003 174.17194904 59.70524972 178.1875 62.125 C179.23679687 62.75535156 180.28609375 63.38570312 181.3671875 64.03515625 C184.39001134 66.1158533 186.80473011 68.39278925 189.3125 71.0625 C183.96928225 72.16799333 178.80326176 72.21157211 173.375 72.1875 C172.07272461 72.19330078 172.07272461 72.19330078 170.74414062 72.19921875 C169.89142578 72.19792969 169.03871094 72.19664062 168.16015625 72.1953125 C167.39711182 72.19418457 166.63406738 72.19305664 165.84790039 72.19189453 C163.3125 72.0625 163.3125 72.0625 160.10920715 71.56349182 C156.36654385 71.06963132 152.80287494 70.92882168 149.02978516 70.91723633 C148.3374025 70.91387772 147.64501984 70.9105191 146.93165588 70.90705872 C144.65493943 70.8976096 142.37829733 70.89560704 140.1015625 70.89453125 C138.48993909 70.89130884 136.87831595 70.88794407 135.26669312 70.88444519 C131.88254116 70.87846483 128.49841467 70.8766036 125.11425781 70.87719727 C121.69525779 70.87727776 118.27639391 70.87045934 114.85742188 70.85668945 C95.25065593 70.77895577 75.83081815 70.9331219 56.3125 73.0625 C55.53461121 73.14527191 54.75672241 73.22804382 53.95526123 73.31332397 C49.35674479 73.81088641 44.77232453 74.38754222 40.1875 75 C38.94742188 75.15662109 37.70734375 75.31324219 36.4296875 75.47460938 C28.74502456 76.47921896 21.19644332 77.81851454 13.61230469 79.38647461 C9.91747022 80.14342908 6.22254906 80.77167617 2.5 81.375 C-4.99818043 82.65096216 -12.40188529 84.29239916 -19.8125 86 C-21.38414917 86.36121948 -21.38414917 86.36121948 -22.98754883 86.72973633 C-37.31100548 90.07739821 -51.32570549 94.08889359 -65.3046875 98.64379883 C-67.94551081 99.50260515 -70.58977168 100.35018139 -73.234375 101.19726562 C-81.27058856 103.79470685 -89.11093101 106.4053142 -96.68261719 110.19946289 C-98.6875 111.0625 -98.6875 111.0625 -101.6875 111.0625 C-101.3575 111.7225 -101.0275 112.3825 -100.6875 113.0625 C-100.484375 115.12109375 -100.484375 115.12109375 -100.4375 117.5 C-100.41171875 118.28246094 -100.3859375 119.06492187 -100.359375 119.87109375 C-100.75926911 122.54181509 -101.63449122 123.38227439 -103.6875 125.0625 C-105.35993402 123.77830959 -107.02531447 122.48492815 -108.6875 121.1875 C-109.615625 120.46820313 -110.54375 119.74890625 -111.5 119.0078125 C-112.221875 118.36585938 -112.94375 117.72390625 -113.6875 117.0625 C-113.6875 116.4025 -113.6875 115.7425 -113.6875 115.0625 C-114.265 114.80339844 -114.8425 114.54429687 -115.4375 114.27734375 C-117.86043811 112.96912543 -119.65178504 111.47384269 -121.6875 109.625 C-123.72385624 107.78352941 -125.69730004 106.05554129 -127.9375 104.46484375 C-128.515 104.00207031 -129.0925 103.53929687 -129.6875 103.0625 C-129.6875 102.4025 -129.6875 101.7425 -129.6875 101.0625 C-130.5228125 100.70478516 -130.5228125 100.70478516 -131.375 100.33984375 C-134.21046753 98.77363111 -136.31472978 96.82776991 -138.6875 94.625 C-142.21631363 91.35816918 -142.21631363 91.35816918 -146 88.40234375 C-146.556875 87.96019531 -147.11375 87.51804687 -147.6875 87.0625 C-147.6875 86.4025 -147.6875 85.7425 -147.6875 85.0625 C-148.25210938 84.81628906 -148.81671875 84.57007813 -149.3984375 84.31640625 C-152.08645928 82.84395746 -154.06067156 81.07945721 -156.3125 79 C-157.61960938 77.80310547 -157.61960938 77.80310547 -158.953125 76.58203125 C-159.85546875 75.75058594 -160.7578125 74.91914063 -161.6875 74.0625 C-163.47647279 72.43453476 -165.26804046 70.80941535 -167.0625 69.1875 C-167.85398438 68.46820313 -168.64546875 67.74890625 -169.4609375 67.0078125 C-171.61060893 65.02872552 -171.61060893 65.02872552 -173.9765625 63.6171875 C-175.6875 62.0625 -175.6875 62.0625 -175.9375 59.375 C-175.855 58.611875 -175.7725 57.84875 -175.6875 57.0625 C-149.41958078 44.4524535 -122.82356749 33.34348664 -95.25097656 23.94091797 C-93.09766595 23.2030502 -90.95003171 22.45200735 -88.8046875 21.69140625 C-77.63873011 17.81257139 -66.21372058 14.88669026 -54.78759766 11.88378906 C-52.07614424 11.16546103 -49.37099316 10.42896432 -46.66796875 9.6796875 C-34.5706556 6.35433543 -22.34591215 3.88884483 -10.02148438 1.55566406 C-2.48835941 -0.03606318 -2.48835941 -0.03606318 0 0 Z " fill="#2B5C84" transform="translate(332.6875,107.9375)"/>
<path d="M0 0 C0.99 0.33 1.98 0.66 3 1 C3 1.66 3 2.32 3 3 C3.90298828 3.09861328 3.90298828 3.09861328 4.82421875 3.19921875 C7.90370986 4.33260417 8.37032495 5.90736927 9.8125 8.8125 C14.09529787 17.13956016 18.67614448 25.28958856 24 33 C28 39 28 39 29.75390625 41.6875 C32.33962537 45.56428387 35.13552691 49.27802826 37.9375 53 C38.44990234 53.68578125 38.96230469 54.3715625 39.49023438 55.078125 C41.87516691 58.2539945 44.28651227 61.36530273 46.87890625 64.375 C49 67 49 67 49 69 C49.66 69 50.32 69 51 69 C52.55078125 70.5390625 52.55078125 70.5390625 54.3125 72.625 C54.92867188 73.35203125 55.54484375 74.0790625 56.1796875 74.828125 C56.78039062 75.54484375 57.38109375 76.2615625 58 77 C58.51820313 77.59296875 59.03640625 78.1859375 59.5703125 78.796875 C63 82.75571429 63 82.75571429 63 85 C63.66 85 64.32 85 65 85 C66.26953125 86.29296875 66.26953125 86.29296875 67.8125 88.1875 C71.29977289 92.29538925 75.00643018 96.1282851 78.8125 99.9375 C79.38782471 100.51717529 79.96314941 101.09685059 80.5559082 101.6940918 C83.49726058 104.71650553 83.49726058 104.71650553 87 107 C87 107.66 87 108.32 87 109 C87.53367187 109.21527344 88.06734375 109.43054688 88.6171875 109.65234375 C91.87657608 111.49576844 94.4281177 114.00013373 97.125 116.5625 C100.76403407 120.18633907 100.76403407 120.18633907 105 123 C105 123.66 105 124.32 105 125 C106.10021484 125.37511719 106.10021484 125.37511719 107.22265625 125.7578125 C110.22561824 127.10090942 112.05480933 128.62397317 114.4375 130.875 C117.04653925 133.28334392 119.55090546 135.49096929 122.5625 137.375 C123.7690625 138.179375 123.7690625 138.179375 125 139 C125 139.66 125 140.32 125 141 C126.0828125 141.37125 126.0828125 141.37125 127.1875 141.75 C130.2843835 143.12639267 132.37594344 144.86073981 135 147 C140.56668845 151.14868193 146.1818155 155.21141474 152 159 C156.82274076 162.14526572 161.42706475 165.50691599 166 169 C166.99 169.7425 167.98 170.485 169 171.25 C169.66 171.8275 170.32 172.405 171 173 C171 173.66 171 174.32 171 175 C171.53625 175.21785156 172.0725 175.43570313 172.625 175.66015625 C175.83418679 177.47060209 178.34532933 179.91753415 181 182.4375 C185.03284864 186.26124464 185.03284864 186.26124464 189.375 189.72265625 C189.91125 190.14417969 190.4475 190.56570313 191 191 C191 191.66 191 192.32 191 193 C191.58910156 193.27070312 192.17820312 193.54140625 192.78515625 193.8203125 C194.98474128 194.99187278 196.58538363 196.21675773 198.4375 197.875 C199.12714844 198.49117187 199.81679688 199.10734375 200.52734375 199.7421875 C204.10162101 203.00590355 207.65693122 206.28993618 211.20507812 209.58203125 C214.24216819 212.39585799 217.30376427 215.16831846 220.4375 217.875 C221.62535162 218.91626568 222.81287382 219.95790733 224 221 C224.91652344 221.78117187 224.91652344 221.78117187 225.8515625 222.578125 C227.5625 224.125 227.5625 224.125 230 227 C229.96484375 229.46484375 229.96484375 229.46484375 229 232 C226.8125 233.80859375 226.8125 233.80859375 224 235.4375 C223.01128906 236.0253125 222.02257812 236.613125 221.00390625 237.21875 C220.01261719 237.8065625 219.02132812 238.394375 218 239 C215.57654644 240.62275304 213.17496066 242.2730381 210.77734375 243.93359375 C209 245 209 245 207 245 C207 245.66 207 246.32 207 247 C206.32195312 247.36351562 205.64390625 247.72703125 204.9453125 248.1015625 C199.21031378 251.199415 193.60169016 254.4112676 188.09375 257.8984375 C186 259 186 259 183 259 C183 259.66 183 260.32 183 261 C176.68082259 265.0888795 176.68082259 265.0888795 173.63989258 264.69189453 C170.99256758 263.99805202 169.08423704 263.10401014 166.7421875 261.70703125 C165.95626221 261.24401611 165.17033691 260.78100098 164.3605957 260.30395508 C163.54034912 259.8117749 162.72010254 259.31959473 161.875 258.8125 C160.17899818 257.81146111 158.48238587 256.81145578 156.78515625 255.8125 C155.9667627 255.32910156 155.14836914 254.84570312 154.30517578 254.34765625 C149.9294239 251.78949586 145.4735249 249.38252899 141 247 C141 246.34 141 245.68 141 245 C140.319375 244.773125 139.63875 244.54625 138.9375 244.3125 C135.96725944 242.98537124 133.57126291 241.29804414 130.96875 239.36328125 C128.11894913 237.38990724 125.08673781 235.81092284 122.015625 234.2109375 C120 233 120 233 118.546875 231.5390625 C116.57320962 229.57536513 114.40647072 228.39854313 112 227 C109.9513576 225.65640986 107.90992951 224.30176978 105.875 222.9375 C104.84117187 222.24527344 103.80734375 221.55304688 102.7421875 220.83984375 C101.38480469 219.92912109 101.38480469 219.92912109 100 219 C98.515 218.01 98.515 218.01 97 217 C97 216.34 97 215.68 97 215 C97.66 214.67 98.32 214.34 99 214 C98.45472656 213.34515625 97.90945313 212.6903125 97.34765625 212.015625 C91.68268026 205.1595515 86.28042197 198.157484 81 191 C80.35417969 190.14019531 79.70835937 189.28039062 79.04296875 188.39453125 C73.44862231 180.86324205 68.39712261 173.00865639 63.35058594 165.10595703 C62.08005245 163.12482509 60.79707043 161.15257654 59.5078125 159.18359375 C55.00112667 152.28629131 50.84015707 145.29339655 47 138 C46.28658379 136.68412088 45.57163557 135.36907163 44.85546875 134.0546875 C44.11179647 132.68239066 43.36830576 131.3099954 42.625 129.9375 C42.26656006 129.28144775 41.90812012 128.62539551 41.53881836 127.94946289 C39 123.22707475 39 123.22707475 39 121 C38.34 121 37.68 121 37 121 C36.76925781 120.39414062 36.53851563 119.78828125 36.30078125 119.1640625 C34.57284656 114.72470461 32.75738548 110.41751664 30.5625 106.1875 C26.49414302 98.22603834 23.52352271 89.7986777 20.79003906 81.29931641 C19.99515486 78.98589878 19.08313619 76.75529263 18.13671875 74.5 C15.79016721 68.67675827 14.06953276 62.72708468 12.375 56.6875 C11.78095693 54.58658474 11.18468213 52.48629894 10.5859375 50.38671875 C10.3286084 49.47108154 10.0712793 48.55544434 9.80615234 47.61206055 C9.04606749 45.00732307 9.04606749 45.00732307 8.00878906 42.59790039 C6.0434055 37.5365145 5.05607553 32.15923754 3.85839844 26.87255859 C3.37911377 24.76806319 2.88519738 22.66735366 2.390625 20.56640625 C0.7943093 13.63732329 -0.42933641 7.15560675 0 0 Z " fill="#2D72A3" transform="translate(276,556)"/>
<path d="M0 0 C100.32 0 200.64 0 304 0 C304 0.66 304 1.32 304 2 C304.66 2 305.32 2 306 2 C306 4.97 306 7.94 306 11 C305.34 11.33 304.68 11.66 304 12 C304 9.69 304 7.38 304 5 C300.93753253 3.21590198 298.77920727 2.77119979 295.25 2.875 C294.45078125 2.89304687 293.6515625 2.91109375 292.828125 2.9296875 C291.92320312 2.96449219 291.92320312 2.96449219 291 3 C291 2.34 291 1.68 291 1 C277.85422854 1.1117978 264.70846383 1.2243608 251.56270504 1.33763981 C245.09592486 1.39331813 238.62914218 1.44867162 232.16235352 1.50335693 C224.22151072 1.57053108 216.28067352 1.63833584 208.33984375 1.70703125 C207.33573243 1.71571496 207.33573243 1.71571496 206.31133604 1.72457409 C187.52474089 1.88738882 168.73851226 2.07231428 149.95239449 2.28414345 C146.40714837 2.32390203 142.86189413 2.36282207 139.31663513 2.40141296 C138.16815251 2.41392373 137.0196699 2.4264345 135.83638477 2.43932438 C133.55415794 2.46416581 131.27193075 2.48897382 128.98970318 2.51374722 C123.49364506 2.57387443 117.99763958 2.63659233 112.50167847 2.70504761 C106.37618122 2.78116133 100.25065072 2.85146498 94.125 2.9140625 C93.17480547 2.92379404 92.22461094 2.93352558 91.24562263 2.94355202 C78.91270144 3.05996557 66.62673689 2.98575881 54.30908203 2.28701782 C48.37278988 1.96866596 42.69455342 2.16921674 36.78051758 2.80776978 C32.91191207 3.07522462 29.2059012 2.65585806 25.359375 2.25390625 C20.5284446 1.88877779 15.71598097 1.95470461 10.87426758 2.03735352 C7.10636059 2.08270754 3.66191247 1.91726966 0 1 C0 0.67 0 0.34 0 0 Z " fill="#1396CD" transform="translate(298,262)"/>
<path d="M0 0 C41.25 0 82.5 0 125 0 C125 0.66 125 1.32 125 2 C125.66 2 126.32 2 127 2 C127 4.97 127 7.94 127 11 C126.34 11.33 125.68 11.66 125 12 C125 9.69 125 7.38 125 5 C121.93753253 3.21590198 119.77920727 2.77119979 116.25 2.875 C115.05117188 2.90207031 115.05117188 2.90207031 113.828125 2.9296875 C112.92320312 2.96449219 112.92320312 2.96449219 112 3 C112 2.34 112 1.68 112 1 C75.04 1 38.08 1 0 1 C0 0.67 0 0.34 0 0 Z " fill="#1993C4" transform="translate(477,262)"/>
<path d="M0 0 C0.66 0 1.32 0 2 0 C2 22.11 2 44.22 2 67 C-2.25959368 58.48081264 -2.25959368 58.48081264 -1.55078125 54.4375 C-0.82186146 49.88821335 -0.93988216 45.47282852 -1 40.875 C-1.098575 27.23468502 -0.56720157 13.6264142 0 0 Z " fill="#18A3ED" transform="translate(486,348)"/>
<path d="M0 0 C1.485 0.99 1.485 0.99 3 2 C3.3742218 3.9354248 3.3742218 3.9354248 3.37231445 6.32617188 C3.38165764 7.66766296 3.38165764 7.66766296 3.39118958 9.03625488 C3.38197983 10.00397827 3.37277008 10.97170166 3.36328125 11.96875 C3.36377975 12.95999878 3.36427826 13.95124756 3.36479187 14.97253418 C3.36244874 17.07073977 3.35270623 19.16894802 3.33618164 21.26708984 C3.3125959 24.48690812 3.31561806 27.70589862 3.32226562 30.92578125 C3.31668894 32.96094246 3.30957911 34.99610017 3.30078125 37.03125 C3.30169266 37.99897339 3.30260406 38.96669678 3.30354309 39.96374512 C3.29401108 40.85807251 3.28447906 41.7523999 3.2746582 42.67382812 C3.26774712 43.85724792 3.26774712 43.85724792 3.26069641 45.0645752 C3 47 3 47 1 49 C-0.52655266 32.39873987 -0.52655266 32.39873987 0.5625 27.4375 C1.10890981 24.39321675 0.53677542 22.0417274 0 19 C-0.17749383 15.60132178 -0.33982132 12.24601152 0.5625 8.9375 C1.25409492 5.8747225 0.52901451 3.05652829 0 0 Z " fill="#21A5F1" transform="translate(601,271)"/>
<path d="M0 0 C0 6.72905273 -8.80429221 12.93758732 -13.30078125 17.53125 C-15 19 -15 19 -17 19 C-17.2475 19.5775 -17.495 20.155 -17.75 20.75 C-19.18299988 23.32939979 -20.78424676 25.06121592 -23 27 C-23.66 27 -24.32 27 -25 27 C-25 27.66 -25 28.32 -25 29 C-25.99 28.67 -26.98 28.34 -28 28 C-18.66666667 18.66666667 -9.33333333 9.33333333 0 0 Z " fill="#243B54" transform="translate(559,642)"/>
<path d="M0 0 C0.66 0 1.32 0 2 0 C2 9.9 2 19.8 2 30 C1.01 29.67 0.02 29.34 -1 29 C-1.12276617 19.26055028 -0.83779436 9.70943816 0 0 Z " fill="#61C1F5" transform="translate(486,439)"/>
<path d="M0 0 C1.87693629 0.05333034 3.75388946 0.10606961 5.63085938 0.15820312 C10.19162963 0.28615303 14.75209653 0.42210643 19.3125 0.5625 C19.3125 0.8925 19.3125 1.2225 19.3125 1.5625 C5.4525 1.5625 -8.4075 1.5625 -22.6875 1.5625 C-22.6875 2.2225 -22.6875 2.8825 -22.6875 3.5625 C-24.0075 3.5625 -25.3275 3.5625 -26.6875 3.5625 C-26.6875 2.9025 -26.6875 2.2425 -26.6875 1.5625 C-28.3375 1.5625 -29.9875 1.5625 -31.6875 1.5625 C-31.6875 1.2325 -31.6875 0.9025 -31.6875 0.5625 C-21.14759058 -0.90729397 -10.59760068 -0.32810777 0 0 Z " fill="#109EDA" transform="translate(532.6875,332.4375)"/>
<path d="M0 0 C0.08071788 2.79224073 0.14035408 5.58216566 0.1875 8.375 C0.21263672 9.1690625 0.23777344 9.963125 0.26367188 10.78125 C0.29004405 12.85586148 0.15486462 14.93100865 0 17 C-0.99 17.66 -1.98 18.32 -3 19 C-3 13.06 -3 7.12 -3 1 C-1 0 -1 0 0 0 Z " fill="#11ACED" transform="translate(299,263)"/>
<path d="M0 0 C1.27230469 0.00902344 2.54460937 0.01804687 3.85546875 0.02734375 C5.31919922 0.04474609 5.31919922 0.04474609 6.8125 0.0625 C4.28769307 2.58730693 2.67426966 2.61988633 -0.8125 3.1875 C-1.81539063 3.35507813 -2.81828125 3.52265625 -3.8515625 3.6953125 C-4.62242187 3.81648438 -5.39328125 3.93765625 -6.1875 4.0625 C-5.8575 4.7225 -5.5275 5.3825 -5.1875 6.0625 C-6.8375 6.0625 -8.4875 6.0625 -10.1875 6.0625 C-10.1875 4.4125 -10.1875 2.7625 -10.1875 1.0625 C-6.62704823 -0.12431726 -3.74941663 -0.03439832 0 0 Z " fill="#233B4F" transform="translate(347.1875,105.9375)"/>
<path d="M0 0 C0.99 0.33 1.98 0.66 3 1 C1.57315404 4.10917296 0.13171297 7.21136053 -1.3125 10.3125 C-1.71662109 11.19357422 -2.12074219 12.07464844 -2.53710938 12.98242188 C-2.93349609 13.82998047 -3.32988281 14.67753906 -3.73828125 15.55078125 C-4.09962158 16.33106689 -4.46096191 17.11135254 -4.83325195 17.9152832 C-6.00127463 20.00227748 -7.23005601 21.40816358 -9 23 C-8.67 20.69 -8.34 18.38 -8 16 C-7.34 16 -6.68 16 -6 16 C-6 14.68 -6 13.36 -6 12 C-5.34 12 -4.68 12 -4 12 C-3.855625 11.236875 -3.71125 10.47375 -3.5625 9.6875 C-3 7 -3 7 -2 4 C-1.34 4 -0.68 4 0 4 C0 2.68 0 1.36 0 0 Z " fill="#294050" transform="translate(697,566)"/>
<path d="M0 0 C0.66 0 1.32 0 2 0 C2 5.61 2 11.22 2 17 C1.01 17 0.02 17 -1 17 C-1.07716358 12.4473486 -0.99001178 8.455053 0 4 C0 2.68 0 1.36 0 0 Z " fill="#2CA3F0" transform="translate(486,418)"/>
<path d="M0 0 C1.32 0.33 2.64 0.66 4 1 C7 6.03571429 7 6.03571429 7 9 C6.34 9 5.68 9 5 9 C4.34 8.34 3.68 7.68 3 7 C2.34 7.99 1.68 8.98 1 10 C0.67 6.7 0.34 3.4 0 0 Z " fill="#1F4967" transform="translate(274,550)"/>
<path d="M0 0 C2.12493141 -0.02693575 4.24995912 -0.04636628 6.375 -0.0625 C7.55835938 -0.07410156 8.74171875 -0.08570313 9.9609375 -0.09765625 C13 0 13 0 15 1 C15 3.97 15 6.94 15 10 C14.01 10.495 14.01 10.495 13 11 C13 8.69 13 6.38 13 4 C9.93753253 2.21590198 7.77920727 1.77119979 4.25 1.875 C3.05117188 1.90207031 3.05117188 1.90207031 1.828125 1.9296875 C0.92320312 1.96449219 0.92320312 1.96449219 0 2 C0 1.34 0 0.68 0 0 Z " fill="#2887B3" transform="translate(589,263)"/>
<path d="M0 0 C1.32 0 2.64 0 4 0 C3.67 0.99 3.34 1.98 3 3 C0.9375 3.6875 0.9375 3.6875 -1 4 C-1 4.66 -1 5.32 -1 6 C-2.96147874 7.38938077 -4.96166576 8.7260411 -7 10 C-7 8.35 -7 6.7 -7 5 C-6.030625 4.54625 -5.06125 4.0925 -4.0625 3.625 C-0.92920418 2.34213779 -0.92920418 2.34213779 0 0 Z " fill="#176C91" transform="translate(474,609)"/>
<path d="M0 0 C1.32 0.33 2.64 0.66 4 1 C2.35 5.95 0.7 10.9 -1 16 C-2.39821284 10.40714864 -1.17998044 5.56276491 0 0 Z " fill="#28404F" transform="translate(718,508)"/>
<path d="M0 0 C3.63 0 7.26 0 11 0 C9.375 2.0625 9.375 2.0625 7 4 C3.75 3.75 3.75 3.75 1 3 C0.67 2.01 0.34 1.02 0 0 Z " fill="#2D6787" transform="translate(454,620)"/>
<path d="M0 0 C0 0.66 0 1.32 0 2 C0.66 2.33 1.32 2.66 2 3 C1.67 3.33 1.34 3.66 1 4 C-1.03125 3.94921875 -1.03125 3.94921875 -3.5 3.6875 C-4.3146875 3.60886719 -5.129375 3.53023438 -5.96875 3.44921875 C-6.6390625 3.30097656 -7.309375 3.15273437 -8 3 C-8.33 2.34 -8.66 1.68 -9 1 C-5.8035914 -0.06546953 -3.34252724 -0.07427838 0 0 Z " fill="#192E41" transform="translate(334,108)"/>
<path d="M0 0 C3.39192363 0.59283621 5.2107757 1.76743189 7.75 4.0625 C8.67039062 4.88427734 8.67039062 4.88427734 9.609375 5.72265625 C10.29773438 6.35494141 10.29773438 6.35494141 11 7 C10.67 7.66 10.34 8.32 10 9 C8.82780457 8.21654285 7.66236332 7.42297164 6.5 6.625 C5.8503125 6.18414063 5.200625 5.74328125 4.53125 5.2890625 C4.0259375 4.86367188 3.520625 4.43828125 3 4 C3 3.34 3 2.68 3 2 C2.01 2 1.02 2 0 2 C0 1.34 0 0.68 0 0 Z " fill="#20303A" transform="translate(362,763)"/>
<path d="M0 0 C3.16305771 2.86181411 5.1049891 6.2099782 7 10 C5.68 10.33 4.36 10.66 3 11 C0.84694043 7.14243493 -0.39253254 4.44870215 0 0 Z " fill="#224558" transform="translate(294,581)"/>
<path d="M0 0 C0.66 0 1.32 0 2 0 C2.33 1.32 2.66 2.64 3 4 C1.02 5.32 -0.96 6.64 -3 8 C-4.32 7.34 -5.64 6.68 -7 6 C-5.68 6 -4.36 6 -3 6 C-3 5.34 -3 4.68 -3 4 C-2.01 4 -1.02 4 0 4 C0 2.68 0 1.36 0 0 Z " fill="#236D90" transform="translate(485,601)"/>
<path d="M0 0 C0.99 0 1.98 0 3 0 C3 3.3 3 6.6 3 10 C1.68 9.67 0.36 9.34 -1 9 C-0.67 8.67 -0.34 8.34 0 8 C0.07148199 6.64756083 0.08399454 5.29165633 0.0625 3.9375 C0.041875 2.638125 0.02125 1.33875 0 0 Z " fill="#21A8E8" transform="translate(601,323)"/>
<path d="M0 0 C0.99 0.33 1.98 0.66 3 1 C1.37660195 2.70884005 -0.29319053 4.37446717 -2 6 C-2.66 6 -3.32 6 -4 6 C-4 6.66 -4 7.32 -4 8 C-4.99 7.67 -5.98 7.34 -7 7 C-4.66666667 4.66666667 -2.33333333 2.33333333 0 0 Z " fill="#25445E" transform="translate(538,663)"/>
<path d="M0 0 C4.60853797 0.72008406 8.67237409 2.31295939 13 4 C13 4.33 13 4.66 13 5 C8.28596212 4.52060632 4.33420699 4.03165952 0 2 C0 1.34 0 0.68 0 0 Z " fill="#3D4E58" transform="translate(651,211)"/>
<path d="M0 0 C0.99 0.33 1.98 0.66 3 1 C0.36 3.64 -2.28 6.28 -5 9 C-5.33 8.01 -5.66 7.02 -6 6 C-5.34 6 -4.68 6 -4 6 C-3.71125 5.38125 -3.4225 4.7625 -3.125 4.125 C-2 2 -2 2 0 0 Z " fill="#3B769A" transform="translate(597,709)"/>
<path d="M0 0 C0.66 0 1.32 0 2 0 C3.65 2.97 5.3 5.94 7 9 C0.75 5.875 0.75 5.875 -1 1 C-0.67 0.67 -0.34 0.34 0 0 Z " fill="#263C4F" transform="translate(287,571)"/>
<path d="M0 0 C5.875 4.625 5.875 4.625 7 8 C5.1875 7.8125 5.1875 7.8125 3 7 C0 2.82142857 0 2.82142857 0 0 Z " fill="#11365B" transform="translate(369,763)"/>
<path d="M0 0 C6.57403846 -0.37211538 6.57403846 -0.37211538 8.73046875 1.51171875 C9.35888672 2.24841797 9.35888672 2.24841797 10 3 C8.5199159 2.88637738 7.04089926 2.75877092 5.5625 2.625 C4.73878906 2.55539063 3.91507813 2.48578125 3.06640625 2.4140625 C2.38449219 2.27742187 1.70257812 2.14078125 1 2 C0.67 1.34 0.34 0.68 0 0 Z " fill="#0B1A24" transform="translate(556,185)"/>
<path d="M0 0 C0.99 0 1.98 0 3 0 C3 2.97 3 5.94 3 9 C2.34 9 1.68 9 1 9 C0.67 6.03 0.34 3.06 0 0 Z " fill="#6FBEEF" transform="translate(485,511)"/>
<path d="M0 0 C0.33 0 0.66 0 1 0 C1.309375 1.093125 1.61875 2.18625 1.9375 3.3125 C2.58337897 5.55407994 3.2623117 7.7869351 4 10 C2.68 10 1.36 10 0 10 C0 6.7 0 3.4 0 0 Z " fill="#173858" transform="translate(718,496)"/>
<path d="M0 0 C3.4375 0.8125 3.4375 0.8125 7 2 C7.33 2.99 7.66 3.98 8 5 C5.33333333 4.33333333 2.66666667 3.66666667 0 3 C0 2.01 0 1.02 0 0 Z " fill="#616E72" transform="translate(679,138)"/>
<path d="M0 0 C0.99 0.33 1.98 0.66 3 1 C4.1875 4.5625 4.1875 4.5625 5 8 C2 7 2 7 0.8125 5.125 C0 3 0 3 0 0 Z " fill="#162D3C" transform="translate(272,543)"/>
<path d="M0 0 C0.66 0 1.32 0 2 0 C0.60667426 3.36720387 -0.9789286 4.9859524 -4 7 C-4.33 6.01 -4.66 5.02 -5 4 C-4.01 4 -3.02 4 -2 4 C-1.34 2.68 -0.68 1.36 0 0 Z " fill="#2C5065" transform="translate(572,733)"/>
<path d="M0 0 C1.32 0.33 2.64 0.66 4 1 C4.33 2.32 4.66 3.64 5 5 C3.68 4.67 2.36 4.34 1 4 C0.67 4.66 0.34 5.32 0 6 C0 4.02 0 2.04 0 0 Z " fill="#173E5B" transform="translate(274,550)"/>
<path d="M0 0 C2.97 0.495 2.97 0.495 6 1 C6 1.66 6 2.32 6 3 C3.36 3 0.72 3 -2 3 C-1.34 2.67 -0.68 2.34 0 2 C0 1.34 0 0.68 0 0 Z " fill="#456A88" transform="translate(388,177)"/>
<path d="M0 0 C0.33 0.99 0.66 1.98 1 3 C-2.08809695 4.76462683 -3.23312136 5 -7 5 C-7 4.34 -7 3.68 -7 3 C-4.69 2.01 -2.38 1.02 0 0 Z " fill="#243F57" transform="translate(185,152)"/>
<path d="M0 0 C0.33 0.99 0.66 1.98 1 3 C-0.65 4.32 -2.3 5.64 -4 7 C-4.66 6.67 -5.32 6.34 -6 6 C-4.02 4.02 -2.04 2.04 0 0 Z " fill="#243B53" transform="translate(523,676)"/>
<path d="M0 0 C2.97 0 5.94 0 9 0 C9 0.99 9 1.98 9 3 C7.68 3 6.36 3 5 3 C5 2.34 5 1.68 5 1 C3.35 1 1.7 1 0 1 C0 0.67 0 0.34 0 0 Z " fill="#80C5D1" transform="translate(501,333)"/>
<path d="M0 0 C0.97608217 2.92824652 1.08226668 4.95613276 1 8 C0.01 7.34 -0.98 6.68 -2 6 C-2.1875 3.375 -2.1875 3.375 -2 1 C-1.34 0.67 -0.68 0.34 0 0 Z " fill="#212E3E" transform="translate(159,164)"/>
<path d="M0 0 C0.66 0 1.32 0 2 0 C1.67 0.66 1.34 1.32 1 2 C0.67 1.34 0.34 0.68 0 0 Z " fill="#000000" transform="translate(347,755)"/>
<path d="M0 0 C0.99 0.495 0.99 0.495 2 1 C1.01 1.495 1.01 1.495 0 2 C0 1.34 0 0.68 0 0 Z " fill="#020200" transform="translate(553,753)"/>
<path d="M0 0 C0.66 0 1.32 0 2 0 C1.67 0.66 1.34 1.32 1 2 C0.67 1.34 0.34 0.68 0 0 Z " fill="#020101" transform="translate(317,729)"/>
<path d="M0 0 C0.66 0 1.32 0 2 0 C1.67 0.66 1.34 1.32 1 2 C0.67 1.34 0.34 0.68 0 0 Z " fill="#000000" transform="translate(497,715)"/>
<path d="M0 0 C0.66 0 1.32 0 2 0 C1.67 0.66 1.34 1.32 1 2 C0.67 1.34 0.34 0.68 0 0 Z " fill="#020101" transform="translate(495,713)"/>
<path d="M0 0 C0.66 0 1.32 0 2 0 C1.67 0.66 1.34 1.32 1 2 C0.67 1.34 0.34 0.68 0 0 Z " fill="#000000" transform="translate(289,701)"/>
<path d="M0 0 C0.66 0 1.32 0 2 0 C1.67 0.66 1.34 1.32 1 2 C0.67 1.34 0.34 0.68 0 0 Z " fill="#010000" transform="translate(287,699)"/>
<path d="M0 0 C0.66 0 1.32 0 2 0 C1.67 0.66 1.34 1.32 1 2 C0.67 1.34 0.34 0.68 0 0 Z " fill="#010000" transform="translate(285,697)"/>
<path d="M0 0 C0.33 0.66 0.66 1.32 1 2 C0.34 1.67 -0.32 1.34 -1 1 C-0.67 0.67 -0.34 0.34 0 0 Z " fill="#010000" transform="translate(516,679)"/>
<path d="M0 0 C0.33 0.66 0.66 1.32 1 2 C0.34 1.67 -0.32 1.34 -1 1 C-0.67 0.67 -0.34 0.34 0 0 Z " fill="#010000" transform="translate(532,665)"/>
<path d="M0 0 C0.66 0.66 1.32 1.32 2 2 C1.34 2 0.68 2 0 2 C0 1.34 0 0.68 0 0 Z " fill="#010000" transform="translate(359,657)"/>
<path d="M0 0 C0.66 0.66 1.32 1.32 2 2 C1.34 2 0.68 2 0 2 C0 1.34 0 0.68 0 0 Z " fill="#010000" transform="translate(347,645)"/>
<path d="M0 0 C0.66 0.66 1.32 1.32 2 2 C1.34 2 0.68 2 0 2 C0 1.34 0 0.68 0 0 Z " fill="#010000" transform="translate(345,643)"/>
<path d="M0 0 C0.99 0.495 0.99 0.495 2 1 C1.01 1.495 1.01 1.495 0 2 C0 1.34 0 0.68 0 0 Z " fill="#010000" transform="translate(471,617)"/>
<path d="M0 0 C0.66 0 1.32 0 2 0 C1.67 0.66 1.34 1.32 1 2 C0.67 1.34 0.34 0.68 0 0 Z " fill="#010000" transform="translate(431,601)"/>
<path d="M0 0 C0.66 0 1.32 0 2 0 C1.67 0.66 1.34 1.32 1 2 C0.67 1.34 0.34 0.68 0 0 Z " fill="#020000" transform="translate(419,589)"/>
<path d="M0 0 C0.66 0 1.32 0 2 0 C1.67 0.66 1.34 1.32 1 2 C0.67 1.34 0.34 0.68 0 0 Z " fill="#020100" transform="translate(417,587)"/>
<path d="M0 0 C0.66 0 1.32 0 2 0 C1.67 0.66 1.34 1.32 1 2 C0.67 1.34 0.34 0.68 0 0 Z " fill="#010000" transform="translate(415,585)"/>
<path d="M0 0 C0.66 0 1.32 0 2 0 C1.67 0.66 1.34 1.32 1 2 C0.67 1.34 0.34 0.68 0 0 Z " fill="#010000" transform="translate(411,581)"/>
<path d="M0 0 C0.66 0.66 1.32 1.32 2 2 C1.34 2 0.68 2 0 2 C0 1.34 0 0.68 0 0 Z " fill="#020101" transform="translate(221,285)"/>
<path d="M0 0 C0.66 0.66 1.32 1.32 2 2 C1.34 2 0.68 2 0 2 C0 1.34 0 0.68 0 0 Z " fill="#010000" transform="translate(201,267)"/>
<path d="M0 0 C0.66 0.66 1.32 1.32 2 2 C1.34 2 0.68 2 0 2 C0 1.34 0 0.68 0 0 Z " fill="#000000" transform="translate(603,259)"/>
<path d="M0 0 C0.66 0.66 1.32 1.32 2 2 C1.34 2 0.68 2 0 2 C0 1.34 0 0.68 0 0 Z " fill="#010000" transform="translate(183,251)"/>
<path d="M0 0 C0.66 0.66 1.32 1.32 2 2 C1.34 2 0.68 2 0 2 C0 1.34 0 0.68 0 0 Z " fill="#010000" transform="translate(165,235)"/>
<path d="M0 0 C0.66 0 1.32 0 2 0 C1.67 0.66 1.34 1.32 1 2 C0.67 1.34 0.34 0.68 0 0 Z " fill="#010000" transform="translate(219,227)"/>
<path d="M0 0 C0.66 0 1.32 0 2 0 C1.67 0.66 1.34 1.32 1 2 C0.67 1.34 0.34 0.68 0 0 Z " fill="#020101" transform="translate(185,197)"/>
<path d="" fill="#020100" transform="translate(0,0)"/>
<path d="" fill="#010100" transform="translate(0,0)"/>
<path d="" fill="#020100" transform="translate(0,0)"/>
<path d="" fill="#010201" transform="translate(0,0)"/>
<path d="" fill="#020100" transform="translate(0,0)"/>
<path d="" fill="#010000" transform="translate(0,0)"/>
<path d="" fill="#020100" transform="translate(0,0)"/>
<path d="" fill="#010000" transform="translate(0,0)"/>
<path d="" fill="#030100" transform="translate(0,0)"/>
<path d="" fill="#020202" transform="translate(0,0)"/>
<path d="" fill="#030201" transform="translate(0,0)"/>
<path d="" fill="#010100" transform="translate(0,0)"/>
<path d="" fill="#010001" transform="translate(0,0)"/>
<path d="" fill="#020100" transform="translate(0,0)"/>
<path d="" fill="#020100" transform="translate(0,0)"/>
<path d="" fill="#020201" transform="translate(0,0)"/>
<path d="" fill="#000000" transform="translate(0,0)"/>
<path d="" fill="#000000" transform="translate(0,0)"/>
<path d="" fill="#0E0D0C" transform="translate(0,0)"/>
<path d="" fill="#060504" transform="translate(0,0)"/>
<path d="" fill="#000000" transform="translate(0,0)"/>
<path d="" fill="#010000" transform="translate(0,0)"/>
<path d="" fill="#010100" transform="translate(0,0)"/>
<path d="" fill="#020100" transform="translate(0,0)"/>
<path d="" fill="#020000" transform="translate(0,0)"/>
<path d="" fill="#010000" transform="translate(0,0)"/>
<path d="" fill="#000000" transform="translate(0,0)"/>
<path d="" fill="#010000" transform="translate(0,0)"/>
<path d="" fill="#040605" transform="translate(0,0)"/>
<path d="" fill="#000000" transform="translate(0,0)"/>
<path d="" fill="#030303" transform="translate(0,0)"/>
<path d="" fill="#010101" transform="translate(0,0)"/>
<path d="" fill="#040304" transform="translate(0,0)"/>
<path d="" fill="#010000" transform="translate(0,0)"/>
<path d="" fill="#020100" transform="translate(0,0)"/>
<path d="" fill="#020000" transform="translate(0,0)"/>
<path d="" fill="#010000" transform="translate(0,0)"/>
<path d="" fill="#010000" transform="translate(0,0)"/>
<path d="" fill="#000000" transform="translate(0,0)"/>
<path d="" fill="#010000" transform="translate(0,0)"/>
<path d="" fill="#020000" transform="translate(0,0)"/>
<path d="" fill="#030404" transform="translate(0,0)"/>
<path d="" fill="#000000" transform="translate(0,0)"/>
<path d="" fill="#020000" transform="translate(0,0)"/>
<path d="" fill="#000000" transform="translate(0,0)"/>
<path d="" fill="#020000" transform="translate(0,0)"/>
<path d="" fill="#040303" transform="translate(0,0)"/>
<path d="" fill="#090B0C" transform="translate(0,0)"/>
<path d="" fill="#060404" transform="translate(0,0)"/>
<path d="" fill="#010000" transform="translate(0,0)"/>
<path d="" fill="#020100" transform="translate(0,0)"/>
<path d="" fill="#020000" transform="translate(0,0)"/>
<path d="" fill="#020000" transform="translate(0,0)"/>
<path d="" fill="#030203" transform="translate(0,0)"/>
<path d="" fill="#010000" transform="translate(0,0)"/>
<path d="" fill="#0C0E10" transform="translate(0,0)"/>
<path d="" fill="#010000" transform="translate(0,0)"/>
<path d="" fill="#030202" transform="translate(0,0)"/>
<path d="" fill="#010000" transform="translate(0,0)"/>
<path d="" fill="#020201" transform="translate(0,0)"/>
<path d="" fill="#010001" transform="translate(0,0)"/>
<path d="" fill="#010000" transform="translate(0,0)"/>
<path d="" fill="#010000" transform="translate(0,0)"/>
<path d="" fill="#010000" transform="translate(0,0)"/>
<path d="" fill="#010000" transform="translate(0,0)"/>
<path d="" fill="#010000" transform="translate(0,0)"/>
<path d="" fill="#010000" transform="translate(0,0)"/>
<path d="" fill="#010000" transform="translate(0,0)"/>
<path d="" fill="#010100" transform="translate(0,0)"/>
<path d="" fill="#010000" transform="translate(0,0)"/>
<path d="" fill="#020100" transform="translate(0,0)"/>
<path d="" fill="#020000" transform="translate(0,0)"/>
<path d="" fill="#010000" transform="translate(0,0)"/>
<path d="" fill="#010000" transform="translate(0,0)"/>
<path d="" fill="#010000" transform="translate(0,0)"/>
<path d="" fill="#010000" transform="translate(0,0)"/>
<path d="" fill="#010000" transform="translate(0,0)"/>
<path d="" fill="#010000" transform="translate(0,0)"/>
<path d="" fill="#020000" transform="translate(0,0)"/>
<path d="" fill="#010100" transform="translate(0,0)"/>
<path d="" fill="#020000" transform="translate(0,0)"/>
<path d="" fill="#020304" transform="translate(0,0)"/>
<path d="" fill="#010000" transform="translate(0,0)"/>
<path d="" fill="#010000" transform="translate(0,0)"/>
<path d="" fill="#010000" transform="translate(0,0)"/>
<path d="" fill="#010000" transform="translate(0,0)"/>
<path d="" fill="#010000" transform="translate(0,0)"/>
<path d="" fill="#040202" transform="translate(0,0)"/>
<path d="" fill="#020000" transform="translate(0,0)"/>
<path d="" fill="#040202" transform="translate(0,0)"/>
<path d="" fill="#010000" transform="translate(0,0)"/>
<path d="" fill="#010100" transform="translate(0,0)"/>
<path d="" fill="#020100" transform="translate(0,0)"/>
<path d="" fill="#010000" transform="translate(0,0)"/>
<path d="" fill="#020100" transform="translate(0,0)"/>
<path d="" fill="#010000" transform="translate(0,0)"/>
<path d="" fill="#020100" transform="translate(0,0)"/>
<path d="" fill="#010000" transform="translate(0,0)"/>
<path d="" fill="#010000" transform="translate(0,0)"/>
<path d="" fill="#010000" transform="translate(0,0)"/>
<path d="" fill="#020100" transform="translate(0,0)"/>
<path d="" fill="#010000" transform="translate(0,0)"/>
<path d="" fill="#020100" transform="translate(0,0)"/>
<path d="" fill="#010000" transform="translate(0,0)"/>
<path d="" fill="#020101" transform="translate(0,0)"/>
<path d="" fill="#010000" transform="translate(0,0)"/>
<path d="" fill="#010000" transform="translate(0,0)"/>
<path d="" fill="#000000" transform="translate(0,0)"/>
<path d="" fill="#080403" transform="translate(0,0)"/>
<path d="" fill="#060604" transform="translate(0,0)"/>
<path d="" fill="#080B0A" transform="translate(0,0)"/>
<path d="" fill="#010000" transform="translate(0,0)"/>
<path d="" fill="#010000" transform="translate(0,0)"/>
<path d="" fill="#010000" transform="translate(0,0)"/>
<path d="" fill="#010000" transform="translate(0,0)"/>
<path d="" fill="#010100" transform="translate(0,0)"/>
<path d="" fill="#010000" transform="translate(0,0)"/>
<path d="" fill="#010000" transform="translate(0,0)"/>
<path d="" fill="#010000" transform="translate(0,0)"/>
<path d="" fill="#010401" transform="translate(0,0)"/>
<path d="" fill="#020000" transform="translate(0,0)"/>
<path d="" fill="#010000" transform="translate(0,0)"/>
<path d="" fill="#020100" transform="translate(0,0)"/>
<path d="" fill="#010000" transform="translate(0,0)"/>
<path d="" fill="#010000" transform="translate(0,0)"/>
<path d="" fill="#050404" transform="translate(0,0)"/>
<path d="" fill="#050301" transform="translate(0,0)"/>
<path d="" fill="#020000" transform="translate(0,0)"/>
<path d="" fill="#000000" transform="translate(0,0)"/>
<path d="" fill="#010100" transform="translate(0,0)"/>
<path d="" fill="#020000" transform="translate(0,0)"/>
<path d="" fill="#010100" transform="translate(0,0)"/>
<path d="" fill="#010000" transform="translate(0,0)"/>
<path d="" fill="#010000" transform="translate(0,0)"/>
<path d="" fill="#020100" transform="translate(0,0)"/>
<path d="" fill="#020100" transform="translate(0,0)"/>
<path d="" fill="#010000" transform="translate(0,0)"/>
<path d="" fill="#010506" transform="translate(0,0)"/>
<path d="" fill="#020001" transform="translate(0,0)"/>
<path d="" fill="#040B12" transform="translate(0,0)"/>
<path d="" fill="#080D12" transform="translate(0,0)"/>
<path d="" fill="#0B0E11" transform="translate(0,0)"/>
<path d="" fill="#060403" transform="translate(0,0)"/>
<path d="" fill="#040302" transform="translate(0,0)"/>
<path d="" fill="#050306" transform="translate(0,0)"/>
<path d="" fill="#010000" transform="translate(0,0)"/>
<path d="" fill="#000000" transform="translate(0,0)"/>
<path d="" fill="#010000" transform="translate(0,0)"/>
<path d="" fill="#020000" transform="translate(0,0)"/>
<path d="" fill="#010000" transform="translate(0,0)"/>
<path d="" fill="#010000" transform="translate(0,0)"/>
<path d="" fill="#010100" transform="translate(0,0)"/>
<path d="" fill="#010000" transform="translate(0,0)"/>
<path d="" fill="#010000" transform="translate(0,0)"/>
<path d="" fill="#010000" transform="translate(0,0)"/>
<path d="" fill="#010000" transform="translate(0,0)"/>
<path d="" fill="#010000" transform="translate(0,0)"/>
<path d="" fill="#010000" transform="translate(0,0)"/>
<path d="" fill="#010000" transform="translate(0,0)"/>
<path d="" fill="#010000" transform="translate(0,0)"/>
<path d="" fill="#020101" transform="translate(0,0)"/>
<path d="" fill="#010000" transform="translate(0,0)"/>
<path d="" fill="#010000" transform="translate(0,0)"/>
<path d="" fill="#010000" transform="translate(0,0)"/>
<path d="" fill="#020101" transform="translate(0,0)"/>
<path d="" fill="#010000" transform="translate(0,0)"/>
<path d="" fill="#010000" transform="translate(0,0)"/>
<path d="" fill="#010000" transform="translate(0,0)"/>
<path d="" fill="#020101" transform="translate(0,0)"/>
<path d="" fill="#010000" transform="translate(0,0)"/>
<path d="" fill="#010000" transform="translate(0,0)"/>
<path d="" fill="#010101" transform="translate(0,0)"/>
<path d="" fill="#010000" transform="translate(0,0)"/>
<path d="" fill="#010000" transform="translate(0,0)"/>
<path d="" fill="#010000" transform="translate(0,0)"/>
<path d="" fill="#000000" transform="translate(0,0)"/>
<path d="" fill="#030303" transform="translate(0,0)"/>
<path d="" fill="#0A0D0D" transform="translate(0,0)"/>
<path d="" fill="#010000" transform="translate(0,0)"/>
<path d="" fill="#010000" transform="translate(0,0)"/>
<path d="" fill="#010000" transform="translate(0,0)"/>
<path d="" fill="#010000" transform="translate(0,0)"/>
<path d="" fill="#000000" transform="translate(0,0)"/>
<path d="" fill="#030403" transform="translate(0,0)"/>
<path d="" fill="#010000" transform="translate(0,0)"/>
<path d="" fill="#010000" transform="translate(0,0)"/>
<path d="" fill="#000000" transform="translate(0,0)"/>
</svg>
